<!-- icon666.com - MILLIONS vector ICONS FREE --><svg id="Capa_1" enable-background="new 0 0 512 512" viewBox="0 0 512 512" xmlns="http://www.w3.org/2000/svg"><g><g><path d="m256.003 259.806-178.808 178.807c-9.229 9.229-24.648 8.011-32.095-2.707-37.356-53.766-32.072-128.175 15.853-176.1 53.858-53.858 141.185-53.865 195.05 0z" fill="#bd80e1"></path><path d="m134.964 221.423c22.028 3.792 43.313 12.951 61.747 27.483 6.88 5.423 7.531 15.614 1.325 21.797l-139.294 138.79c-7.434 7.434-18.883 8.085-26.948 2.455 3.58 8.311 8.015 16.342 13.306 23.958 7.447 10.718 22.866 11.936 32.095 2.707l178.807-178.807c-32.935-32.936-78.382-45.726-121.038-38.383z" fill="#af66da"></path><path d="m434.81 80.999c9.229-9.229 24.649-8.011 32.095 2.708 37.349 53.763 32.065 128.181-15.853 176.099-53.864 53.864-141.192 53.857-195.049 0z" fill="#6e61b6"></path><path d="m466.905 83.707c-7.446-10.719-22.866-11.937-32.095-2.708l-17.945 17.945c6.022.452 11.595 3.427 14.457 9.167 22.817 45.749 20.617 103.776-27.301 151.694-20.927 20.927-46.905 33.718-74.008 38.383 42.657 7.343 88.103-5.447 121.039-38.383 47.917-47.917 53.202-122.335 15.853-176.098z" fill="#6354b1"></path></g><path d="m272.065 385.629c0 4.059-1.553 8.119-4.648 11.224l-110.665 110.656c-2.876 2.876-6.776 4.491-10.844 4.491h-30.544c-2.96 0-4.443-3.579-2.35-5.672l131.628-131.628c5.94-5.94 15.569-6.599 21.919-1.101 3.666 3.173 5.504 7.601 5.504 12.03z" fill="#fe7ab6"></path><path d="m266.562 373.598c-6.35-5.499-15.979-4.839-21.919 1.101l-3.35 3.35c1.278 2.356 1.927 4.966 1.927 7.579 0 4.059-1.553 8.119-4.648 11.224l-115.157 115.148h22.493c4.067 0 7.968-1.616 10.844-4.491l110.665-110.655c3.095-3.105 4.648-7.165 4.648-11.224 0-4.43-1.839-8.859-5.503-12.032z" fill="#fe5ca7"></path><path d="m388.734 0h30.544c2.96 0 4.443 3.579 2.35 5.672l-59.722 59.722c-6.046 6.046-15.894 6.604-22.219.85-6.754-6.143-6.94-16.61-.558-22.991l38.761-38.761c2.876-2.876 6.776-4.492 10.844-4.492z" fill="#fe7ab6"></path><path d="m392.023 0c2.231.687 2.929 3.502 1.279 5.152l-45.359 45.359c-3.665 3.665-8.675 5.146-13.441 4.478.137 4.309 1.997 8.573 5.625 11.641 6.353 5.373 15.867 4.675 21.75-1.208l59.75-59.75c2.093-2.093.611-5.672-2.35-5.672z" fill="#fe5ca7"></path><circle cx="142.359" cy="122.445" fill="#75cdd5" r="47.645"></circle><path d="m142.359 74.8c-6.723 0-13.117 1.4-18.917 3.912 16.901 7.321 28.729 24.143 28.729 43.733s-11.828 36.413-28.729 43.733c5.8 2.512 12.194 3.912 18.917 3.912 26.314 0 47.645-21.331 47.645-47.645s-21.331-47.645-47.645-47.645z" fill="#2abcc8"></path><circle cx="409.841" cy="383.94" fill="#75cdd5" r="20.897"></circle><path d="m409.841 363.043c-3.297 0-6.404.785-9.177 2.144 6.934 3.4 11.72 10.508 11.72 18.753 0 8.244-4.786 15.352-11.72 18.753 2.773 1.36 5.88 2.144 9.177 2.144 11.541 0 20.897-9.356 20.897-20.897s-9.356-20.897-20.897-20.897z" fill="#2abcc8"></path><g><path d="m284.094 477.291c-1.977 0-3.955-.755-5.463-2.263-3.018-3.017-3.018-7.909 0-10.927l56.369-56.368c3.017-3.017 7.909-3.017 10.927 0s3.018 7.909 0 10.927l-56.369 56.369c-1.509 1.508-3.487 2.262-5.464 2.262z" fill="#bd80e1"></path></g><g><path d="m268.277 141.777c-1.977 0-3.955-.755-5.463-2.263-3.018-3.017-3.018-7.909 0-10.927l44.002-44.002c3.017-3.017 7.909-3.017 10.927 0s3.018 7.909 0 10.927l-44.001 44.002c-1.51 1.509-3.487 2.263-5.465 2.263z" fill="#75cdd5"></path></g></g></svg>