<!-- icon666.com - MILLIONS vector ICONS FREE --><svg id="Capa_1" enable-background="new 0 0 512 512" viewBox="0 0 512 512" xmlns="http://www.w3.org/2000/svg"><g><path d="m91.969 72.425-13.189-13.188c-1.398-1.398-1.398-3.665 0-5.064l13.189-13.189c3.004-3.004 3.004-7.875 0-10.879l-13.452-13.453c-3.004-3.004-7.875-3.004-10.879 0l-13.19 13.189c-1.398 1.398-3.665 1.398-5.064 0l-13.188-13.189c-3.004-3.004-7.875-3.004-10.879 0l-13.453 13.453c-3.004 3.004-3.004 7.875 0 10.879l13.189 13.189c1.398 1.398 1.398 3.665 0 5.064l-13.189 13.188c-3.004 3.004-3.004 7.875 0 10.879l13.452 13.452c3.004 3.004 7.875 3.004 10.879 0l13.189-13.189c1.398-1.398 3.665-1.398 5.064 0l13.189 13.189c3.004 3.004 7.875 3.004 10.879 0l13.452-13.452c3.005-3.004 3.005-7.874.001-10.879z" fill="#fe7ab6"></path><path d="m91.964 72.42c3.014 3.014 3.014 7.875 0 10.879l-13.447 13.458c-3.004 3.004-7.875 3.004-10.879 0l-3.898-3.897 9.56-9.56c3.004-3.004 3.004-7.865 0-10.879l-13.193-13.184c-1.39-1.401-1.39-3.664 0-5.064l13.194-13.193c3.004-3.004 3.004-7.875 0-10.879l-9.56-9.55 3.897-3.897c3.004-3.004 7.875-3.004 10.879 0l13.447 13.446c3.014 3.004 3.014 7.875 0 10.879l-13.183 13.194c-1.4 1.401-1.4 3.664 0 5.064z" fill="#fe5ca7"></path><g><path d="m380.563 310.266-42.633-42.633c-3.649-3.649-3.649-9.565 0-13.215l68.646-68.646c8.152-8.152 8.152-21.37 0-29.522l-46.86-46.859c-8.153-8.152-21.37-8.152-29.522 0l-68.646 68.646c-3.649 3.649-9.565 3.649-13.215 0l-68.646-68.646c-8.152-8.152-21.37-8.152-29.522 0l-46.86 46.859c-8.152 8.152-8.152 21.37 0 29.522l68.646 68.646c3.649 3.649 3.649 9.565 0 13.215l-68.646 68.646c-8.152 8.152-8.152 21.37 0 29.522l46.86 46.86c8.152 8.153 21.37 8.153 29.522 0l68.646-68.646c3.649-3.649 9.565-3.649 13.215 0l44.462 44.462c7.949-38.14 37.091-68.502 74.553-78.211z" fill="#fef056"></path><g fill="#f9dc08"><path d="m159.766 127.082 46.171 45.207c3.752 3.684 8.801 5.748 14.059 5.748h28.338l-68.646-68.646c-8.152-8.152-21.37-8.152-29.522 0l-13.183 13.183c7.573-3.15 16.623-1.652 22.783 4.508z"></path><path d="m406.576 156.25-46.86-46.859c-8.153-8.152-21.37-8.152-29.522 0l-11.928 11.928c7.348-2.599 15.853-.983 21.731 4.895l30.036 30.036c8.152 8.152 8.152 21.37 0 29.522l-66.022 66.022c-5.098 5.098-5.098 13.364 0 18.462l32.644 32.644c3.271 3.271 2.018 8.798-2.322 10.399-23.797 8.78-43.439 26.138-55.178 48.322l26.855 26.854c7.949-38.139 37.09-68.502 74.553-78.211l-42.633-42.633c-3.649-3.649-3.649-9.565 0-13.215l68.646-68.646c8.153-8.15 8.153-21.368 0-29.52z"></path><path d="m159.33 396.476c-5.395 5.395-13.002 7.196-19.897 5.452l10.733 10.733c8.152 8.153 21.37 8.153 29.522 0l68.646-68.646h-28.23c-5.322 0-10.427 2.114-14.19 5.878z"></path></g><path d="m406.353 306.992c-8.908 0-17.55 1.138-25.791 3.274l26.013 26.013c8.152 8.152 8.152 21.37 0 29.522l-46.86 46.86c-8.153 8.153-21.37 8.153-29.522 0l-24.184-24.184c-1.414 6.785-2.161 13.815-2.161 21.019 0 56.612 45.893 102.504 102.504 102.504s102.504-45.893 102.504-102.504c.002-56.612-45.891-102.504-102.503-102.504z" fill="#bd80e1"></path><g><path d="m406.353 306.992c-6.226 0-12.318.568-18.237 1.632 47.877 8.631 84.199 50.509 84.199 100.872 0 50.375-36.339 92.262-84.233 100.879 5.929 1.067 12.035 1.625 18.271 1.625 56.611 0 102.504-45.893 102.504-102.504.001-56.612-45.892-102.504-102.504-102.504z" fill="#af66da"></path></g></g><path d="m487.478 49.566-93.794 93.794-16.695-6.617-3.481-1.38-5.074-17.253 89.065-89.075 4.729-4.729c3.826-3.826 10.027-3.826 13.853 0l11.397 11.397c3.826 3.826 3.826 10.037 0 13.863z" fill="#6e61b6"></path><path d="m487.478 49.566-93.794 93.794-16.695-6.617 87.177-87.177c3.826-3.826 3.826-10.037 0-13.863l-6.668-6.668 4.729-4.729c3.826-3.826 10.027-3.826 13.853 0l11.397 11.397c3.827 3.826 3.827 10.037.001 13.863z" fill="#6354b1"></path><path d="m393.684 143.36-30.537 30.537c-3.826 3.826-10.027 3.826-13.853 0l-7.916-7.926-3.481-3.481c-3.826-3.826-3.826-10.027 0-13.853l12.26-12.26 18.278-18.268z" fill="#bd80e1"></path><path d="m393.684 143.36-30.537 30.537c-3.826 3.826-10.027 3.826-13.853 0l-7.916-7.926c3.146.69 6.566-.183 9.022-2.639l8.383-8.383c2.75-2.75 2.75-7.195 0-9.946l-8.626-8.626 18.278-18.268z" fill="#af66da"></path><g><path d="m32.428 420.639c-1.967-3.717-6.574-5.134-10.288-3.167-3.716 1.967-5.133 6.573-3.167 10.288 1.829 3.455 3.824 6.879 5.929 10.179 1.452 2.276 3.912 3.519 6.424 3.519 1.4 0 2.819-.387 4.086-1.195 3.544-2.261 4.585-6.966 2.324-10.51-1.884-2.954-3.67-6.022-5.308-9.114z" fill="#fe5ca7"></path><path d="m20.068 386.482c-.724-3.43-1.318-6.93-1.764-10.401-.536-4.169-4.349-7.125-8.519-6.579-4.169.535-7.115 4.35-6.579 8.519.498 3.874 1.16 7.779 1.968 11.607.756 3.583 3.918 6.041 7.439 6.041.521 0 1.051-.055 1.581-.167 4.112-.869 6.743-4.907 5.874-9.02z" fill="#fe7ab6"></path><path d="m10.017 346.14c.381.057.759.084 1.133.084 3.707 0 6.955-2.713 7.518-6.49.516-3.463 1.18-6.949 1.972-10.364.95-4.094-1.599-8.184-5.694-9.135-4.095-.95-8.184 1.599-9.135 5.694-.884 3.807-1.624 7.696-2.2 11.559-.62 4.158 2.248 8.031 6.406 8.652z" fill="#fe5ca7"></path><g fill="#fe7ab6"><path d="m37.068 275.928c-3.496-2.332-8.222-1.389-10.556 2.108-2.167 3.248-4.229 6.629-6.129 10.05-2.042 3.675-.719 8.308 2.956 10.35 1.17.651 2.439.959 3.69.959 2.675 0 5.27-1.412 6.66-3.916 1.702-3.062 3.548-6.088 5.487-8.995 2.333-3.497 1.388-8.222-2.108-10.556z"></path><path d="m252.168 452.078c-2.973-2.971-7.792-2.971-10.765 0-2.487 2.488-5.095 4.897-7.752 7.164-3.199 2.728-3.581 7.532-.853 10.73 1.506 1.766 3.644 2.673 5.796 2.673 1.746 0 3.501-.598 4.935-1.82 2.963-2.527 5.87-5.212 8.64-7.982 2.971-2.973 2.971-7.791-.001-10.765z"></path><path d="m157.686 490.225c-3.505.243-7.058.344-10.553.309-.027 0-.052 0-.078 0-4.167 0-7.567 3.358-7.61 7.535-.042 4.204 3.332 7.645 7.535 7.688.521.005 1.043.008 1.565.008 3.382 0 6.811-.119 10.193-.353 4.193-.291 7.358-3.927 7.067-8.12-.29-4.194-3.91-7.35-8.119-7.067z"></path></g><path d="m203.01 478.756c-3.186 1.451-6.474 2.79-9.769 3.981-3.954 1.428-6.001 5.791-4.573 9.744 1.12 3.1 4.043 5.028 7.159 5.028.859 0 1.732-.147 2.586-.455 3.68-1.329 7.349-2.825 10.907-4.445 3.826-1.741 5.514-6.256 3.772-10.081-1.743-3.825-6.255-5.515-10.082-3.772z" fill="#fe5ca7"></path><path d="m69.488 464.1c-2.79-2.108-5.534-4.36-8.157-6.694-3.142-2.794-7.953-2.511-10.746.627-2.794 3.141-2.513 7.952.627 10.746 2.925 2.602 5.985 5.113 9.096 7.465 1.374 1.038 2.985 1.539 4.584 1.539 2.304 0 4.582-1.043 6.078-3.022 2.535-3.353 1.872-8.126-1.482-10.661z" fill="#fe7ab6"></path><path d="m111.201 485.148c-3.356-.992-6.715-2.134-9.984-3.393-3.924-1.512-8.329.444-9.839 4.365-1.512 3.923.442 8.328 4.365 9.839 3.649 1.406 7.398 2.681 11.144 3.788.721.213 1.446.314 2.161.314 3.286 0 6.318-2.145 7.296-5.456 1.19-4.032-1.113-8.266-5.143-9.457z" fill="#fe5ca7"></path></g><g><path d="m279.653 106.622c-1.947 0-3.896-.743-5.383-2.229-2.972-2.973-2.972-7.792 0-10.765l91.399-91.4c2.973-2.971 7.792-2.971 10.765 0 2.972 2.973 2.972 7.792 0 10.765l-91.399 91.4c-1.486 1.486-3.435 2.229-5.382 2.229z" fill="#bd80e1"></path></g></g></svg>