<?xml version="1.0" encoding="iso-8859-1"?>
<!-- Generator: Adobe Illustrator 19.0.0, SVG Export Plug-In . SVG Version: 6.00 Build 0)  -->
<svg version="1.1" id="Layer_1" xmlns="http://www.w3.org/2000/svg" xmlns:xlink="http://www.w3.org/1999/xlink" x="0px" y="0px"
	 viewBox="0 0 499.2 499.2" style="enable-background:new 0 0 499.2 499.2;" xml:space="preserve">
<path style="fill:#9E925F;" d="M492,243.2c0,133.6-108.8,256-242.4,256S7.2,377.6,7.2,243.2C7.2,109.6,116,0.8,249.6,0.8
	S492,109.6,492,243.2z"/>
<circle style="fill:#E5D698;" cx="249.6" cy="243.2" r="242.4"/>
<path style="fill:#D3CB92;" d="M249.6,0.8C383.2,0.8,492,109.6,492,243.2c0,134.4-108.8,243.2-242.4,243.2S7.2,377.6,7.2,243.2"/>
<path style="fill:#B2A872;" d="M249.6,0.8C383.2,0.8,492,109.6,492,243.2c0,134.4-108.8,243.2-242.4,243.2"/>
<path style="fill:#9E925F;" d="M163.2,356.8l126.4,126.4c76-12,140-60,174.4-124.8L284.8,179.2L163.2,356.8z"/>
<path style="fill:#D8CE9A;" d="M465.6,250.4c0,12.8-10.4,23.2-23.2,23.2H400c-12.8,0-23.2-10.4-23.2-23.2V248
	c0-12.8,10.4-23.2,23.2-23.2h42.4c12.8,0,23.2,10.4,23.2,23.2V250.4z"/>
<path style="fill:#9E925F;" d="M395.2,54.4c0,23.2-56.8,53.6-134.4,53.6c-76.8,0-139.2-19.2-139.2-42.4S184,36,260.8,36
	S395.2,31.2,395.2,54.4z"/>
<path style="fill:#E8DDB1;" d="M465.6,249.6c0,8-12.8,16-25.6,16h-41.6c-12.8,0-23.2-8-23.2-16l0,0c0-8,10.4-16,23.2-16H440
	C452.8,233.6,465.6,241.6,465.6,249.6L465.6,249.6z"/>
<circle style="fill:#FFFBD7;" cx="249.6" cy="250.4" r="157.6"/>
<path style="fill:#EFE8B9;" d="M138.4,139.2c61.6-61.6,160.8-61.6,222.4,0s61.6,160.8,0,222.4"/>
<circle style="fill:#562707;" cx="249.6" cy="250.4" r="117.6"/>
<path style="fill:#7C4013;" d="M332.8,167.2c45.6,45.6,45.6,120,0,165.6s-120,45.6-165.6,0s-23.2-97.6,22.4-143.2
	S286.4,121.6,332.8,167.2z"/>
<path style="fill:#562707;" d="M166.4,167.2c45.6-45.6,120-45.6,165.6,0s45.6,120,0,165.6"/>
<path style="fill:#A5DBDB;" d="M334.4,24.8c-33.6,0-80,4-110.4,9.6C219.2,14.4,200.8,0,173.6,0c-32,0-71.2,20.8-71.2,46.4
	s39.2,46.4,71.2,46.4c27.2,0,44.8-14.4,50.4-34.4C253.6,64,300,68,334.4,68c54.4,0,61.6-9.6,61.6-21.6S388.8,24.8,334.4,24.8z"/>
<path style="fill:#81C1C1;" d="M334.4,29.6c-33.6,0-80,3.2-110.4,7.2c-4.8-15.2-22.4-27.2-49.6-27.2c-32,0-71.2,16-71.2,36
	s39.2,36,71.2,36c27.2,0,44.8-11.2,50.4-27.2c29.6,4.8,76,7.2,110.4,7.2c54.4,0,61.6-7.2,61.6-16.8S388.8,29.6,334.4,29.6z"/>
<path style="fill:#72B2B2;" d="M217.6,45.6c0,18.4-22.4,33.6-50.4,33.6S108.8,64,108.8,45.6S139.2,12,167.2,12
	S217.6,27.2,217.6,45.6z"/>
<g>
	<circle style="fill:#995425;" cx="177.6" cy="268" r="8"/>
	<circle style="fill:#995425;" cx="193.6" cy="220" r="3.2"/>
	<circle style="fill:#995425;" cx="240.8" cy="305.6" r="8.8"/>
	<circle style="fill:#995425;" cx="229.6" cy="266.4" r="4"/>
	<circle style="fill:#995425;" cx="288.8" cy="314.4" r="4.8"/>
	<circle style="fill:#995425;" cx="200.8" cy="306.4" r="3.2"/>
</g>
<g>
	<circle style="fill:#7C4013;" cx="273.6" cy="205.6" r="13.6"/>
	<circle style="fill:#7C4013;" cx="212" cy="178.4" r="3.2"/>
	<circle style="fill:#7C4013;" cx="232" cy="172" r="1.6"/>
	<circle style="fill:#7C4013;" cx="311.2" cy="257.6" r="11.2"/>
</g>
<g>
</g>
<g>
</g>
<g>
</g>
<g>
</g>
<g>
</g>
<g>
</g>
<g>
</g>
<g>
</g>
<g>
</g>
<g>
</g>
<g>
</g>
<g>
</g>
<g>
</g>
<g>
</g>
<g>
</g>
</svg>
