<!-- icon666.com - MILLIONS vector ICONS FREE --><svg id="Capa_1" enable-background="new 0 0 510.002 510.002" viewBox="0 0 510.002 510.002" xmlns="http://www.w3.org/2000/svg" xmlns:xlink="http://www.w3.org/1999/xlink"><linearGradient id="lg1"><stop offset="0" stop-color="#feaee1"></stop><stop offset=".1363" stop-color="#fda9dd"></stop><stop offset=".2904" stop-color="#fb9bd2"></stop><stop offset=".4533" stop-color="#f785c0"></stop><stop offset=".6222" stop-color="#f265a6"></stop><stop offset=".7958" stop-color="#ec3c85"></stop><stop offset=".971" stop-color="#e40b5d"></stop><stop offset="1" stop-color="#e30256"></stop></linearGradient><linearGradient id="SVGID_1_" gradientUnits="userSpaceOnUse" x1="54.589" x2="387.441" xlink:href="#lg1" y1="105.412" y2="438.265"></linearGradient><linearGradient id="lg2"><stop offset="0" stop-color="#5b3374" stop-opacity="0"></stop><stop offset="1" stop-color="#5b3374"></stop></linearGradient><linearGradient id="SVGID_00000039819536080609371690000011395339192611750847_" gradientUnits="userSpaceOnUse" x1="448.092" x2="404.758" xlink:href="#lg2" y1="349.639" y2="321.639"></linearGradient><linearGradient id="SVGID_00000023981108713097081870000009559292279898155400_" gradientUnits="userSpaceOnUse" x1="333.343" x2="-16.513" xlink:href="#lg1" y1="368.241" y2="18.385"></linearGradient><linearGradient id="SVGID_00000011031342538345907720000014551845772270550155_" gradientUnits="userSpaceOnUse" x1="240.461" x2="214.461" xlink:href="#lg2" y1="330.126" y2="345.459"></linearGradient><linearGradient id="SVGID_00000148634975072812381790000011542852992218190757_" gradientUnits="userSpaceOnUse" x1="84.484" x2="129.484" xlink:href="#lg2" y1="315.656" y2="287.156"></linearGradient><linearGradient id="SVGID_00000136403143793885309780000011436532857561715630_" gradientUnits="userSpaceOnUse" x1="342.517" x2="369.626" xlink:href="#lg2" y1="290.068" y2="307.96"></linearGradient><linearGradient id="lg3"><stop offset="0" stop-color="#d9b1ee"></stop><stop offset="1" stop-color="#814aa0"></stop></linearGradient><linearGradient id="SVGID_00000105400489949709101960000008733358201445940876_" gradientUnits="userSpaceOnUse" x1="185.95" x2="420.068" xlink:href="#lg3" y1="135.122" y2="369.24"></linearGradient><linearGradient id="SVGID_00000023248821180332113420000004953264017305618308_" gradientUnits="userSpaceOnUse" x1="433.295" x2="111.859" xlink:href="#lg3" y1="398.388" y2="76.953"></linearGradient><linearGradient id="SVGID_00000105402697908671988560000018333490624712160424_" gradientUnits="userSpaceOnUse" x1="255.278" x2="287.778" xlink:href="#lg2" y1="178.575" y2="158.575"></linearGradient><linearGradient id="SVGID_00000042726865895293991320000006794812670494979483_" gradientUnits="userSpaceOnUse" x1="389.663" x2="361.163" xlink:href="#lg2" y1="186.386" y2="194.386"></linearGradient><linearGradient id="lg4"><stop offset="0" stop-color="#ffe177"></stop><stop offset=".1672" stop-color="#ffdd73"></stop><stop offset=".3563" stop-color="#ffd065"></stop><stop offset=".5559" stop-color="#ffbc4e"></stop><stop offset=".7629" stop-color="#fea02f"></stop><stop offset=".9738" stop-color="#fe7c06"></stop><stop offset="1" stop-color="#fe7701"></stop></linearGradient><linearGradient id="SVGID_00000163052923707013868970000008270046145095024570_" gradientUnits="userSpaceOnUse" x1="229.701" x2="279.459" xlink:href="#lg4" y1="229.699" y2="279.457"></linearGradient><linearGradient id="lg5"><stop offset="0" stop-color="#fea613" stop-opacity="0"></stop><stop offset="1" stop-color="#e94444"></stop></linearGradient><linearGradient id="SVGID_00000035500979931679017010000008348708844052823735_" gradientUnits="userSpaceOnUse" x1="240.65" x2="222.069" xlink:href="#lg5" y1="269.352" y2="287.933"></linearGradient><linearGradient id="SVGID_00000014620047633573971430000012682930578390609038_" gradientUnits="userSpaceOnUse" x1="34.96" x2="109.66" xlink:href="#lg4" y1="402.211" y2="476.911"></linearGradient><linearGradient id="SVGID_00000018199199585484290210000007934246312708727940_" gradientUnits="userSpaceOnUse" x1="51.398" x2="23.502" xlink:href="#lg5" y1="461.74" y2="489.635"></linearGradient><linearGradient id="SVGID_00000026881235322642412970000013656026931545435821_" gradientUnits="userSpaceOnUse" x1="399.076" x2="473.776" xlink:href="#lg4" y1="31.825" y2="106.525"></linearGradient><linearGradient id="SVGID_00000109748967139233690800000004029216638154557352_" gradientUnits="userSpaceOnUse" x1="415.514" x2="387.618" xlink:href="#lg5" y1="91.353" y2="119.249"></linearGradient><g><g><g><path d="m216.342 9.65-209.617 317.598c-9.428 14.284.817 33.32 17.931 33.32h419.235c17.115 0 27.359-19.035 17.931-33.32l-209.617-317.598c-8.492-12.867-27.371-12.867-35.863 0zm35.863 96.559 110.782 167.851c9.428 14.284-.817 33.32-17.931 33.32h-221.565c-17.115 0-27.359-19.035-17.931-33.32l110.782-167.851c8.492-12.867 27.371-12.867 35.863 0z" fill="url(#SVGID_1_)"></path><path d="m461.822 327.25-35.4-53.63-57.39 86.95h74.86c17.11 0 27.36-19.04 17.93-33.32z" fill="url(#SVGID_00000039819536080609371690000011395339192611750847_)"></path><path d="m216.802 61.339-156.089 236.508c-9.186 13.918.796 32.465 17.472 32.465h312.187c16.676 0 26.658-18.548 17.472-32.466l-156.098-236.507c-8.275-12.537-26.67-12.537-34.944 0zm35.403 44.87 110.782 167.851c9.428 14.284-.817 33.32-17.931 33.32h-221.565c-17.115 0-27.359-19.035-17.931-33.32l110.782-167.851c8.492-12.867 27.371-12.867 35.863 0z" fill="url(#SVGID_00000023981108713097081870000009559292279898155400_)"></path><path d="m248.245 307.379h-63.726l35.105 53.189h63.729z" fill="url(#SVGID_00000011031342538345907720000014551845772270550155_)"></path><path d="m139.439 307.379h-15.947c-17.115 0-27.359-19.036-17.931-33.32l5.944-9.005-31.865-48.28-72.915 110.474c-9.428 14.284.816 33.32 17.931 33.32h149.888z" fill="url(#SVGID_00000148634975072812381790000011542852992218190757_)"></path></g><path d="m385.913 212.235-31.664 47.985-.198.3 8.937 13.54c9.428 14.284-.816 33.32-17.931 33.32h-21.937l-35.109 53.189h63.333l66.239-100.348.001-.001z" fill="url(#SVGID_00000136403143793885309780000011436532857561715630_)"></path><g><path d="m485.352 149.43h-140.89l35.1 53.19h6.95c17.12 0 27.36 19.04 17.93 33.32l-110.78 167.85c-8.49 12.87-27.37 12.87-35.86 0l-110.79-167.85c-9.42-14.28.82-33.32 17.94-33.32h150.89l-35.11-53.19h-214.62c-17.11 0-27.36 19.04-17.93 33.32l209.62 317.6c8.49 12.87 27.37 12.87 35.86 0l209.62-317.6c9.42-14.28-.82-33.32-17.93-33.32z" fill="url(#SVGID_00000105400489949709101960000008733358201445940876_)"></path><path d="m431.832 179.69h-67.4l15.13 22.93h6.95c17.12 0 27.36 19.04 17.93 33.32l-1.44 2.19-80.82 122.44-28.52 43.22c-8.49 12.87-27.37 12.87-35.86 0l-28.53-43.22-35.11-53.19-47.15-71.44c-9.42-14.28.82-33.32 17.94-33.32h150.89l-15.14-22.93h-181.06c-16.68 0-26.66 18.55-17.47 32.46l22.12 33.52 40.73 61.71 35.1 53.19 58.14 88.09c8.27 12.54 26.67 12.54 34.94 0l58.14-88.09 66.24-100.35 31.72-48.07c9.18-13.91-.8-32.46-17.47-32.46z" fill="url(#SVGID_00000023248821180332113420000004953264017305618308_)"></path></g><path d="m203.002 202.62h112.84l-35.11-53.19h-77.73z" fill="url(#SVGID_00000105402697908671988560000018333490624712160424_)"></path><path d="m485.352 149.43h-140.89l35.1 53.19h6.95c6.206 0 11.5 2.51 15.289 6.38h84.156l17.325-26.25c9.42-14.28-.82-33.32-17.93-33.32z" fill="url(#SVGID_00000042726865895293991320000006794812670494979483_)"></path></g><g><path d="m244.648 297.211-31.858-31.858c-5.718-5.718-5.718-14.989 0-20.707l31.858-31.858c5.718-5.718 14.989-5.718 20.707 0l31.858 31.858c5.718 5.718 5.718 14.989 0 20.707l-31.858 31.858c-5.718 5.719-14.989 5.719-20.707 0z" fill="url(#SVGID_00000163052923707013868970000008270046145095024570_)"></path><path d="m229.281 228.156-16.491 16.491c-5.718 5.718-5.718 14.989 0 20.707l31.858 31.858c5.718 5.718 14.989 5.718 20.707 0l16.491-16.491z" fill="url(#SVGID_00000035500979931679017010000008348708844052823735_)"></path></g><g><path d="m57.4 503.564-47.826-47.826c-8.584-8.584-8.584-22.502 0-31.087l47.826-47.827c8.584-8.584 22.502-8.584 31.087 0l47.826 47.827c8.584 8.584 8.584 22.502 0 31.087l-47.826 47.827c-8.585 8.584-22.503 8.584-31.087-.001z" fill="url(#SVGID_00000014620047633573971430000012682930578390609038_)"></path><path d="m34.33 399.895-24.756 24.756c-8.584 8.584-8.584 22.502 0 31.087l47.826 47.826c8.584 8.584 22.502 8.584 31.087 0l24.756-24.756z" fill="url(#SVGID_00000018199199585484290210000007934246312708727940_)"></path></g><g><path d="m421.516 133.178-47.827-47.826c-8.584-8.584-8.584-22.502 0-31.087l47.827-47.826c8.584-8.584 22.502-8.584 31.087 0l47.827 47.826c8.584 8.584 8.584 22.502 0 31.087l-47.827 47.826c-8.585 8.584-22.503 8.584-31.087 0z" fill="url(#SVGID_00000026881235322642412970000013656026931545435821_)"></path><path d="m398.446 29.508-24.756 24.756c-8.584 8.584-8.584 22.502 0 31.087l47.826 47.826c8.584 8.584 22.502 8.584 31.087 0l24.756-24.756z" fill="url(#SVGID_00000109748967139233690800000004029216638154557352_)"></path></g></g></svg>